<?xml version="1.0" encoding="UTF-8" standalone="no"?>
<!DOCTYPE svg PUBLIC "-//W3C//DTD SVG 1.1//EN" "http://www.w3.org/Graphics/SVG/1.1/DTD/svg11.dtd">
<svg width="100%" height="100%" viewBox="0 0 160 14" version="1.1" xmlns="http://www.w3.org/2000/svg" xmlns:xlink="http://www.w3.org/1999/xlink" xml:space="preserve" xmlns:serif="http://www.serif.com/" style="fill-rule:evenodd;clip-rule:evenodd;stroke-linejoin:round;stroke-miterlimit:2;">
    <g transform="matrix(1,0,0,1,-0.62887,12.394141)">
        <g transform="matrix(15,0,0,15,0,0)">
            <path d="M0.944,-0.591L0.944,-0.499C0.796,-0.499 0.203,-0.499 0.055,-0.499L0.055,-0.591C0.203,-0.591 0.796,-0.591 0.944,-0.591ZM0.698,-0.527C0.705,-0.428 0.716,-0.343 0.731,-0.272C0.75,-0.183 0.771,-0.119 0.794,-0.081C0.816,-0.044 0.832,-0.026 0.842,-0.027C0.848,-0.028 0.854,-0.043 0.861,-0.074C0.866,-0.099 0.87,-0.126 0.872,-0.154C0.872,-0.154 0.9,-0.138 0.957,-0.106C0.948,-0.052 0.936,-0.006 0.921,0.031C0.903,0.073 0.883,0.094 0.86,0.094C0.84,0.095 0.818,0.085 0.793,0.066C0.74,0.025 0.696,-0.057 0.66,-0.18C0.631,-0.276 0.612,-0.389 0.602,-0.517C0.594,-0.619 0.591,-0.72 0.593,-0.819C0.593,-0.819 0.625,-0.819 0.689,-0.819C0.688,-0.725 0.691,-0.627 0.698,-0.527ZM0.733,-0.783C0.733,-0.783 0.759,-0.794 0.811,-0.817C0.836,-0.787 0.857,-0.758 0.875,-0.731C0.891,-0.705 0.905,-0.681 0.916,-0.659C0.916,-0.659 0.89,-0.646 0.838,-0.619C0.821,-0.651 0.805,-0.68 0.788,-0.706C0.769,-0.735 0.751,-0.76 0.733,-0.783ZM0.128,-0.372C0.128,-0.372 0.164,-0.372 0.22,-0.372C0.22,-0.306 0.22,-0.049 0.22,0.013C0.22,0.013 0.189,0.016 0.128,0.024C0.128,-0.042 0.128,-0.306 0.128,-0.372ZM0.323,-0.452C0.323,-0.452 0.359,-0.452 0.417,-0.452C0.417,-0.378 0.417,-0.095 0.417,-0.027C0.417,-0.027 0.386,-0.02 0.323,-0.006C0.323,-0.08 0.323,-0.378 0.323,-0.452ZM0.578,-0.322C0.578,-0.322 0.578,-0.293 0.578,-0.234C0.578,-0.234 0.509,-0.234 0.37,-0.234C0.37,-0.234 0.37,-0.263 0.37,-0.322C0.37,-0.322 0.439,-0.322 0.578,-0.322ZM0.335,0.035C0.246,0.055 0.153,0.072 0.054,0.085C0.054,0.085 0.05,0.053 0.042,-0.01C0.129,-0.021 0.219,-0.035 0.312,-0.054C0.406,-0.072 0.503,-0.096 0.605,-0.126C0.605,-0.126 0.605,-0.095 0.605,-0.034C0.519,-0.009 0.429,0.014 0.335,0.035ZM0.517,-0.757C0.517,-0.757 0.517,-0.727 0.517,-0.668C0.452,-0.668 0.194,-0.668 0.129,-0.668L0.129,-0.757C0.194,-0.757 0.452,-0.757 0.517,-0.757Z" style="fill:rgb(120,113,108);fill-rule:nonzero;"/>
        </g>
        <g transform="matrix(15,0,0,15,15,0)">
            <path d="M0.452,-0.82C0.452,-0.82 0.49,-0.82 0.55,-0.82C0.55,-0.682 0.55,-0.128 0.55,0.01C0.55,0.01 0.517,0.01 0.452,0.01C0.452,-0.128 0.452,-0.682 0.452,-0.82ZM0.948,-0.506L0.948,-0.414C0.799,-0.414 0.201,-0.414 0.052,-0.414L0.052,-0.506C0.201,-0.506 0.799,-0.506 0.948,-0.506ZM0.911,-0.036L0.911,0.057C0.774,0.057 0.228,0.057 0.092,0.057L0.092,-0.036C0.228,-0.036 0.774,-0.036 0.911,-0.036Z" style="fill:rgb(120,113,108);fill-rule:nonzero;"/>
        </g>
        <g transform="matrix(15,0,0,15,30,0)">
            <path d="M0.43,-0.791C0.43,-0.791 0.46,-0.802 0.52,-0.824C0.528,-0.812 0.54,-0.794 0.554,-0.768C0.568,-0.745 0.584,-0.713 0.603,-0.672C0.603,-0.672 0.57,-0.672 0.504,-0.672C0.493,-0.692 0.481,-0.712 0.469,-0.732C0.456,-0.754 0.443,-0.774 0.43,-0.791ZM0.748,-0.672C0.748,-0.672 0.715,-0.672 0.649,-0.672C0.674,-0.703 0.695,-0.731 0.711,-0.757C0.729,-0.784 0.741,-0.807 0.749,-0.825C0.749,-0.825 0.78,-0.814 0.842,-0.793C0.824,-0.764 0.809,-0.741 0.797,-0.724C0.784,-0.706 0.767,-0.689 0.748,-0.672ZM0.943,-0.717L0.943,-0.627C0.841,-0.627 0.434,-0.627 0.332,-0.627L0.332,-0.717C0.434,-0.717 0.841,-0.717 0.943,-0.717ZM0.56,-0.6C0.567,-0.625 0.573,-0.649 0.579,-0.672C0.579,-0.672 0.613,-0.672 0.682,-0.672C0.677,-0.649 0.671,-0.625 0.663,-0.6C0.655,-0.576 0.645,-0.551 0.633,-0.525L0.532,-0.525C0.543,-0.551 0.552,-0.576 0.56,-0.6ZM0.834,-0.424C0.834,-0.424 0.834,-0.398 0.834,-0.347C0.834,-0.347 0.701,-0.347 0.436,-0.347C0.436,-0.347 0.436,-0.373 0.436,-0.424C0.436,-0.424 0.568,-0.424 0.834,-0.424ZM0.834,-0.293C0.834,-0.293 0.834,-0.267 0.834,-0.217C0.834,-0.217 0.701,-0.217 0.436,-0.217C0.436,-0.217 0.436,-0.242 0.436,-0.293C0.436,-0.293 0.568,-0.293 0.834,-0.293ZM0.834,-0.154C0.834,-0.154 0.834,-0.126 0.834,-0.07C0.834,-0.07 0.701,-0.07 0.436,-0.07L0.436,-0.154C0.436,-0.154 0.568,-0.154 0.834,-0.154ZM0.391,-0.567C0.391,-0.567 0.428,-0.567 0.48,-0.567C0.48,-0.484 0.48,-0.153 0.48,-0.07C0.48,-0.07 0.451,-0.07 0.391,-0.07C0.391,-0.153 0.391,-0.484 0.391,-0.567ZM0.789,-0.567C0.789,-0.567 0.869,-0.567 0.879,-0.567C0.879,-0.484 0.879,-0.153 0.879,-0.07C0.879,-0.07 0.849,-0.07 0.789,-0.07C0.789,-0.153 0.789,-0.484 0.789,-0.567ZM0.834,-0.567C0.834,-0.567 0.834,-0.539 0.834,-0.483C0.834,-0.483 0.701,-0.483 0.436,-0.483C0.436,-0.483 0.436,-0.511 0.436,-0.567C0.436,-0.567 0.568,-0.567 0.834,-0.567ZM0.07,-0.748C0.07,-0.748 0.092,-0.769 0.135,-0.81C0.165,-0.787 0.194,-0.763 0.223,-0.736C0.25,-0.711 0.277,-0.683 0.305,-0.652C0.305,-0.652 0.283,-0.63 0.239,-0.586C0.214,-0.615 0.188,-0.643 0.161,-0.668C0.131,-0.697 0.101,-0.723 0.07,-0.748ZM0.939,0.086C0.838,0.086 0.74,0.086 0.645,0.086C0.545,0.086 0.47,0.083 0.421,0.076C0.354,0.068 0.304,0.041 0.269,-0.005C0.258,-0.02 0.245,-0.028 0.231,-0.028C0.211,-0.028 0.174,0.017 0.12,0.107C0.12,0.107 0.097,0.085 0.05,0.042C0.12,-0.066 0.18,-0.121 0.232,-0.121C0.255,-0.121 0.275,-0.111 0.292,-0.091C0.328,-0.046 0.369,-0.019 0.415,-0.012C0.465,-0.003 0.546,0 0.658,-0.001C0.75,-0.002 0.851,-0.004 0.961,-0.008C0.961,-0.008 0.954,0.023 0.939,0.086ZM0.234,-0.481C0.234,-0.481 0.234,-0.452 0.234,-0.393C0.234,-0.393 0.173,-0.393 0.05,-0.393L0.05,-0.481C0.05,-0.481 0.112,-0.481 0.234,-0.481ZM0.19,-0.481C0.19,-0.481 0.272,-0.481 0.279,-0.481C0.279,-0.412 0.279,-0.136 0.279,-0.067C0.279,-0.067 0.242,-0.067 0.19,-0.067C0.19,-0.136 0.19,-0.412 0.19,-0.481Z" style="fill:rgb(120,113,108);fill-rule:nonzero;"/>
        </g>
    </g>
    <g transform="matrix(1,0,0,1,47.37113,10.394141)">
        <g transform="matrix(11,0,0,11,0,0)">
            <path d="M0.598,-0.717L0.598,-0.632L0.356,-0.632L0.356,-0L0.258,-0L0.258,-0.632L0.016,-0.632L0.016,-0.717L0.598,-0.717Z" style="fill:rgb(120,113,108);fill-rule:nonzero;"/>
        </g>
        <g transform="matrix(11,0,0,11,6.752238,0)">
            <path d="M0.064,-0.72L0.152,-0.72L0.152,-0.452C0.173,-0.479 0.192,-0.497 0.208,-0.508C0.237,-0.526 0.272,-0.536 0.314,-0.536C0.39,-0.536 0.442,-0.509 0.469,-0.456C0.483,-0.427 0.491,-0.387 0.491,-0.335L0.491,-0L0.4,-0L0.4,-0.33C0.4,-0.368 0.396,-0.396 0.386,-0.414C0.37,-0.443 0.34,-0.457 0.296,-0.457C0.259,-0.457 0.226,-0.444 0.197,-0.419C0.167,-0.394 0.152,-0.347 0.152,-0.277L0.152,-0L0.064,-0L0.064,-0.72Z" style="fill:rgb(120,113,108);fill-rule:nonzero;"/>
        </g>
        <g transform="matrix(11,0,0,11,12.902914,0)">
            <path d="M0.282,-0.535C0.319,-0.535 0.355,-0.526 0.39,-0.509C0.425,-0.491 0.451,-0.469 0.47,-0.441C0.487,-0.415 0.499,-0.384 0.505,-0.349C0.51,-0.325 0.513,-0.286 0.513,-0.233L0.129,-0.233C0.131,-0.18 0.144,-0.138 0.167,-0.106C0.19,-0.074 0.227,-0.058 0.276,-0.058C0.322,-0.058 0.358,-0.073 0.386,-0.103C0.401,-0.121 0.412,-0.141 0.419,-0.164L0.505,-0.164C0.503,-0.145 0.496,-0.123 0.483,-0.1C0.47,-0.076 0.455,-0.057 0.439,-0.042C0.413,-0.016 0.38,0.002 0.34,0.011C0.319,0.016 0.295,0.019 0.269,0.019C0.203,0.019 0.148,-0.005 0.103,-0.052C0.058,-0.1 0.035,-0.166 0.035,-0.251C0.035,-0.335 0.058,-0.404 0.104,-0.456C0.149,-0.508 0.209,-0.535 0.282,-0.535ZM0.422,-0.303C0.419,-0.341 0.41,-0.372 0.397,-0.395C0.373,-0.437 0.333,-0.458 0.277,-0.458C0.236,-0.458 0.203,-0.443 0.175,-0.414C0.148,-0.385 0.133,-0.348 0.132,-0.303L0.422,-0.303Z" style="fill:rgb(120,113,108);fill-rule:nonzero;"/>
        </g>
        <g transform="matrix(11,0,0,11,22.142742,0)">
            <path d="M0.346,-0.414C0.387,-0.414 0.419,-0.42 0.441,-0.431C0.477,-0.449 0.495,-0.481 0.495,-0.528C0.495,-0.575 0.476,-0.606 0.438,-0.623C0.417,-0.632 0.385,-0.636 0.342,-0.636L0.169,-0.636L0.169,-0.414L0.346,-0.414ZM0.378,-0.083C0.438,-0.083 0.48,-0.1 0.506,-0.135C0.522,-0.157 0.53,-0.183 0.53,-0.214C0.53,-0.266 0.507,-0.301 0.46,-0.32C0.435,-0.33 0.403,-0.335 0.362,-0.335L0.169,-0.335L0.169,-0.083L0.378,-0.083ZM0.074,-0.717L0.382,-0.717C0.466,-0.717 0.526,-0.692 0.561,-0.642C0.582,-0.612 0.592,-0.578 0.592,-0.54C0.592,-0.494 0.579,-0.457 0.554,-0.428C0.54,-0.413 0.521,-0.399 0.496,-0.386C0.533,-0.372 0.56,-0.356 0.579,-0.339C0.611,-0.308 0.627,-0.264 0.627,-0.209C0.627,-0.163 0.612,-0.121 0.583,-0.084C0.54,-0.028 0.471,-0 0.377,-0L0.074,-0L0.074,-0.717Z" style="fill:rgb(120,113,108);fill-rule:nonzero;"/>
        </g>
        <g transform="matrix(11,0,0,11,29.512656,0)">
            <path d="M0.152,-0.523L0.152,-0.176C0.152,-0.149 0.157,-0.127 0.165,-0.11C0.181,-0.079 0.21,-0.063 0.252,-0.063C0.314,-0.063 0.355,-0.091 0.377,-0.146C0.389,-0.175 0.396,-0.215 0.396,-0.266L0.396,-0.523L0.483,-0.523L0.483,-0L0.4,-0L0.401,-0.077C0.39,-0.057 0.376,-0.041 0.359,-0.027C0.325,0 0.285,0.014 0.237,0.014C0.162,0.014 0.111,-0.011 0.084,-0.061C0.07,-0.087 0.062,-0.123 0.062,-0.167L0.062,-0.523L0.152,-0.523Z" style="fill:rgb(120,113,108);fill-rule:nonzero;"/>
        </g>
        <g transform="matrix(11,0,0,11,35.663332,0)">
            <path d="M0.117,-0.164C0.119,-0.135 0.127,-0.112 0.139,-0.097C0.161,-0.068 0.199,-0.054 0.254,-0.054C0.286,-0.054 0.315,-0.061 0.34,-0.075C0.365,-0.09 0.377,-0.111 0.377,-0.141C0.377,-0.164 0.367,-0.181 0.347,-0.192C0.334,-0.2 0.309,-0.208 0.272,-0.217L0.202,-0.235C0.158,-0.246 0.125,-0.258 0.104,-0.272C0.066,-0.296 0.047,-0.329 0.047,-0.371C0.047,-0.42 0.065,-0.46 0.1,-0.491C0.136,-0.521 0.184,-0.537 0.244,-0.537C0.323,-0.537 0.38,-0.514 0.415,-0.467C0.436,-0.438 0.447,-0.406 0.446,-0.373L0.363,-0.373C0.362,-0.392 0.355,-0.41 0.342,-0.427C0.322,-0.45 0.287,-0.461 0.237,-0.461C0.204,-0.461 0.179,-0.455 0.162,-0.442C0.145,-0.43 0.136,-0.413 0.136,-0.392C0.136,-0.369 0.147,-0.351 0.17,-0.337C0.183,-0.329 0.202,-0.322 0.228,-0.316L0.286,-0.302C0.349,-0.286 0.391,-0.272 0.413,-0.257C0.447,-0.235 0.464,-0.2 0.464,-0.151C0.464,-0.105 0.446,-0.065 0.411,-0.031C0.376,0.003 0.322,0.02 0.25,0.02C0.172,0.02 0.117,0.002 0.084,-0.033C0.052,-0.068 0.035,-0.112 0.032,-0.164L0.117,-0.164Z" style="fill:rgb(120,113,108);fill-rule:nonzero;"/>
        </g>
        <g transform="matrix(11,0,0,11,41.196332,0)">
            <path d="M0.064,-0.72L0.152,-0.72L0.152,-0.452C0.173,-0.479 0.192,-0.497 0.208,-0.508C0.237,-0.526 0.272,-0.536 0.314,-0.536C0.39,-0.536 0.442,-0.509 0.469,-0.456C0.483,-0.427 0.491,-0.387 0.491,-0.335L0.491,-0L0.4,-0L0.4,-0.33C0.4,-0.368 0.396,-0.396 0.386,-0.414C0.37,-0.443 0.34,-0.457 0.296,-0.457C0.259,-0.457 0.226,-0.444 0.197,-0.419C0.167,-0.394 0.152,-0.347 0.152,-0.277L0.152,-0L0.064,-0L0.064,-0.72Z" style="fill:rgb(120,113,108);fill-rule:nonzero;"/>
        </g>
        <g transform="matrix(11,0,0,11,47.347008,0)">
            <path d="M0.064,-0.521L0.154,-0.521L0.154,-0L0.064,-0L0.064,-0.521ZM0.064,-0.717L0.154,-0.717L0.154,-0.618L0.064,-0.618L0.064,-0.717Z" style="fill:rgb(120,113,108);fill-rule:nonzero;"/>
        </g>
        <g transform="matrix(11,0,0,11,49.823855,0)">
            <path d="M0.12,-0.255C0.12,-0.199 0.132,-0.153 0.156,-0.115C0.18,-0.077 0.218,-0.058 0.27,-0.058C0.311,-0.058 0.344,-0.076 0.37,-0.111C0.397,-0.146 0.41,-0.196 0.41,-0.261C0.41,-0.327 0.396,-0.376 0.369,-0.408C0.342,-0.44 0.309,-0.456 0.269,-0.456C0.225,-0.456 0.189,-0.439 0.161,-0.405C0.134,-0.371 0.12,-0.321 0.12,-0.255ZM0.252,-0.532C0.292,-0.532 0.326,-0.524 0.353,-0.507C0.369,-0.497 0.386,-0.48 0.406,-0.456L0.406,-0.72L0.491,-0.72L0.491,-0L0.412,-0L0.412,-0.073C0.391,-0.041 0.367,-0.017 0.339,-0.003C0.311,0.011 0.279,0.019 0.243,0.019C0.184,0.019 0.134,-0.006 0.091,-0.055C0.049,-0.104 0.027,-0.169 0.027,-0.25C0.027,-0.327 0.047,-0.393 0.086,-0.448C0.125,-0.504 0.18,-0.532 0.252,-0.532Z" style="fill:rgb(120,113,108);fill-rule:nonzero;"/>
        </g>
        <g transform="matrix(11,0,0,11,55.974531,0)">
            <path d="M0.272,-0.057C0.33,-0.057 0.37,-0.079 0.392,-0.123C0.413,-0.167 0.424,-0.216 0.424,-0.27C0.424,-0.319 0.417,-0.359 0.401,-0.389C0.376,-0.437 0.333,-0.461 0.273,-0.461C0.219,-0.461 0.18,-0.441 0.156,-0.4C0.131,-0.359 0.119,-0.309 0.119,-0.251C0.119,-0.196 0.131,-0.149 0.156,-0.112C0.18,-0.075 0.219,-0.057 0.272,-0.057ZM0.275,-0.538C0.343,-0.538 0.4,-0.516 0.446,-0.471C0.493,-0.426 0.516,-0.36 0.516,-0.272C0.516,-0.188 0.496,-0.118 0.455,-0.063C0.414,-0.008 0.35,0.019 0.264,0.019C0.192,0.019 0.135,-0.005 0.092,-0.054C0.05,-0.103 0.029,-0.168 0.029,-0.25C0.029,-0.338 0.051,-0.408 0.096,-0.46C0.14,-0.512 0.2,-0.538 0.275,-0.538Z" style="fill:rgb(120,113,108);fill-rule:nonzero;"/>
        </g>
        <g transform="matrix(11,0,0,11,65.214359,0)">
            <path d="M0.378,-0.737C0.469,-0.737 0.54,-0.713 0.59,-0.665C0.64,-0.617 0.668,-0.563 0.673,-0.502L0.579,-0.502C0.568,-0.548 0.546,-0.585 0.514,-0.612C0.482,-0.639 0.437,-0.652 0.379,-0.652C0.309,-0.652 0.252,-0.628 0.208,-0.578C0.165,-0.528 0.143,-0.452 0.143,-0.35C0.143,-0.266 0.163,-0.198 0.202,-0.145C0.241,-0.093 0.3,-0.067 0.377,-0.067C0.449,-0.067 0.504,-0.094 0.541,-0.149C0.561,-0.178 0.576,-0.216 0.585,-0.264L0.68,-0.264C0.672,-0.188 0.644,-0.125 0.596,-0.074C0.539,-0.012 0.462,0.019 0.366,0.019C0.282,0.019 0.212,-0.007 0.156,-0.057C0.081,-0.124 0.044,-0.227 0.044,-0.366C0.044,-0.472 0.072,-0.559 0.128,-0.626C0.188,-0.7 0.272,-0.737 0.378,-0.737Z" style="fill:rgb(120,113,108);fill-rule:nonzero;"/>
        </g>
        <g transform="matrix(11,0,0,11,73.191207,0)">
            <path d="M0.272,-0.057C0.33,-0.057 0.37,-0.079 0.392,-0.123C0.413,-0.167 0.424,-0.216 0.424,-0.27C0.424,-0.319 0.417,-0.359 0.401,-0.389C0.376,-0.437 0.333,-0.461 0.273,-0.461C0.219,-0.461 0.18,-0.441 0.156,-0.4C0.131,-0.359 0.119,-0.309 0.119,-0.251C0.119,-0.196 0.131,-0.149 0.156,-0.112C0.18,-0.075 0.219,-0.057 0.272,-0.057ZM0.275,-0.538C0.343,-0.538 0.4,-0.516 0.446,-0.471C0.493,-0.426 0.516,-0.36 0.516,-0.272C0.516,-0.188 0.496,-0.118 0.455,-0.063C0.414,-0.008 0.35,0.019 0.264,0.019C0.192,0.019 0.135,-0.005 0.092,-0.054C0.05,-0.103 0.029,-0.168 0.029,-0.25C0.029,-0.338 0.051,-0.408 0.096,-0.46C0.14,-0.512 0.2,-0.538 0.275,-0.538Z" style="fill:rgb(120,113,108);fill-rule:nonzero;"/>
        </g>
        <g transform="matrix(11,0,0,11,79.341883,0)">
            <rect x="0.067" y="-0.717" width="0.088" height="0.717" style="fill:rgb(120,113,108);fill-rule:nonzero;"/>
        </g>
        <g transform="matrix(11,0,0,11,81.81873,0)">
            <rect x="0.067" y="-0.717" width="0.088" height="0.717" style="fill:rgb(120,113,108);fill-rule:nonzero;"/>
        </g>
        <g transform="matrix(11,0,0,11,84.295578,0)">
            <path d="M0.282,-0.535C0.319,-0.535 0.355,-0.526 0.39,-0.509C0.425,-0.491 0.451,-0.469 0.47,-0.441C0.487,-0.415 0.499,-0.384 0.505,-0.349C0.51,-0.325 0.513,-0.286 0.513,-0.233L0.129,-0.233C0.131,-0.18 0.144,-0.138 0.167,-0.106C0.19,-0.074 0.227,-0.058 0.276,-0.058C0.322,-0.058 0.358,-0.073 0.386,-0.103C0.401,-0.121 0.412,-0.141 0.419,-0.164L0.505,-0.164C0.503,-0.145 0.496,-0.123 0.483,-0.1C0.47,-0.076 0.455,-0.057 0.439,-0.042C0.413,-0.016 0.38,0.002 0.34,0.011C0.319,0.016 0.295,0.019 0.269,0.019C0.203,0.019 0.148,-0.005 0.103,-0.052C0.058,-0.1 0.035,-0.166 0.035,-0.251C0.035,-0.335 0.058,-0.404 0.104,-0.456C0.149,-0.508 0.209,-0.535 0.282,-0.535ZM0.422,-0.303C0.419,-0.341 0.41,-0.372 0.397,-0.395C0.373,-0.437 0.333,-0.458 0.277,-0.458C0.236,-0.458 0.203,-0.443 0.175,-0.414C0.148,-0.385 0.133,-0.348 0.132,-0.303L0.422,-0.303Z" style="fill:rgb(120,113,108);fill-rule:nonzero;"/>
        </g>
        <g transform="matrix(11,0,0,11,90.446254,0)">
            <path d="M0.266,-0.538C0.325,-0.538 0.373,-0.524 0.41,-0.495C0.447,-0.466 0.469,-0.417 0.477,-0.347L0.391,-0.347C0.386,-0.379 0.374,-0.406 0.355,-0.427C0.337,-0.449 0.307,-0.459 0.266,-0.459C0.21,-0.459 0.17,-0.432 0.146,-0.377C0.13,-0.342 0.123,-0.298 0.123,-0.246C0.123,-0.194 0.134,-0.15 0.156,-0.114C0.178,-0.078 0.213,-0.06 0.26,-0.06C0.297,-0.06 0.326,-0.071 0.347,-0.094C0.368,-0.116 0.383,-0.146 0.391,-0.185L0.477,-0.185C0.467,-0.116 0.442,-0.065 0.403,-0.033C0.364,-0.001 0.314,0.015 0.253,0.015C0.185,0.015 0.131,-0.01 0.09,-0.06C0.049,-0.11 0.029,-0.172 0.029,-0.247C0.029,-0.339 0.051,-0.41 0.096,-0.461C0.14,-0.513 0.197,-0.538 0.266,-0.538Z" style="fill:rgb(120,113,108);fill-rule:nonzero;"/>
        </g>
        <g transform="matrix(11,0,0,11,95.979254,0)">
            <path d="M0.082,-0.669L0.171,-0.669L0.171,-0.523L0.254,-0.523L0.254,-0.451L0.171,-0.451L0.171,-0.11C0.171,-0.092 0.177,-0.079 0.189,-0.073C0.196,-0.07 0.208,-0.068 0.224,-0.068C0.228,-0.068 0.232,-0.068 0.237,-0.068C0.242,-0.068 0.248,-0.069 0.254,-0.069L0.254,-0C0.244,0.003 0.234,0.005 0.223,0.006C0.212,0.008 0.2,0.008 0.188,0.008C0.146,0.008 0.119,-0.002 0.104,-0.023C0.089,-0.044 0.082,-0.071 0.082,-0.105L0.082,-0.451L0.011,-0.451L0.011,-0.523L0.082,-0.523L0.082,-0.669Z" style="fill:rgb(120,113,108);fill-rule:nonzero;"/>
        </g>
        <g transform="matrix(11,0,0,11,99.068406,0)">
            <path d="M0.064,-0.521L0.154,-0.521L0.154,-0L0.064,-0L0.064,-0.521ZM0.064,-0.717L0.154,-0.717L0.154,-0.618L0.064,-0.618L0.064,-0.717Z" style="fill:rgb(120,113,108);fill-rule:nonzero;"/>
        </g>
        <g transform="matrix(11,0,0,11,101.545254,0)">
            <path d="M0.107,-0.523L0.247,-0.097L0.393,-0.523L0.489,-0.523L0.292,-0L0.198,-0L0.005,-0.523L0.107,-0.523Z" style="fill:rgb(120,113,108);fill-rule:nonzero;"/>
        </g>
        <g transform="matrix(11,0,0,11,107.078254,0)">
            <path d="M0.282,-0.535C0.319,-0.535 0.355,-0.526 0.39,-0.509C0.425,-0.491 0.451,-0.469 0.47,-0.441C0.487,-0.415 0.499,-0.384 0.505,-0.349C0.51,-0.325 0.513,-0.286 0.513,-0.233L0.129,-0.233C0.131,-0.18 0.144,-0.138 0.167,-0.106C0.19,-0.074 0.227,-0.058 0.276,-0.058C0.322,-0.058 0.358,-0.073 0.386,-0.103C0.401,-0.121 0.412,-0.141 0.419,-0.164L0.505,-0.164C0.503,-0.145 0.496,-0.123 0.483,-0.1C0.47,-0.076 0.455,-0.057 0.439,-0.042C0.413,-0.016 0.38,0.002 0.34,0.011C0.319,0.016 0.295,0.019 0.269,0.019C0.203,0.019 0.148,-0.005 0.103,-0.052C0.058,-0.1 0.035,-0.166 0.035,-0.251C0.035,-0.335 0.058,-0.404 0.104,-0.456C0.149,-0.508 0.209,-0.535 0.282,-0.535ZM0.422,-0.303C0.419,-0.341 0.41,-0.372 0.397,-0.395C0.373,-0.437 0.333,-0.458 0.277,-0.458C0.236,-0.458 0.203,-0.443 0.175,-0.414C0.148,-0.385 0.133,-0.348 0.132,-0.303L0.422,-0.303Z" style="fill:rgb(120,113,108);fill-rule:nonzero;"/>
        </g>
    </g>
</svg>
